<?xml version="1.0" encoding="utf-8"?>
<svg width="800px" height="800px" viewBox="0 0 24 24" fill="none" xmlns="http://www.w3.org/2000/svg">
<ellipse cx="12" cy="6" rx="8" ry="2" fill="currentColor"/>
<path d="M4 6v4c0 1.1 3.6 2 8 2s8-.9 8-2V6" fill="none" stroke="currentColor" stroke-width="2"/>
<path d="M4 10v4c0 1.1 3.6 2 8 2s8-.9 8-2v-4" fill="none" stroke="currentColor" stroke-width="2"/>
<path d="M4 14v4c0 1.1 3.6 2 8 2s8-.9 8-2v-4" fill="none" stroke="currentColor" stroke-width="2"/>
<path d="M15 3c1 0 2 .5 2.5 1.5S18 6 17 6.5" fill="none" stroke="currentColor" stroke-width="1"/>
<circle cx="16" cy="4" r="0.5" fill="currentColor"/>
</svg>